0
SECTION
2
HEADER
9
$INSUNITS
70
4
9
$ACADVER
1
AC1014
9
$HANDSEED
5
FFFF
0
ENDSEC
0
SECTION
2
TABLES
0
TABLE
2
VPORT
5
8
100
AcDbSymbolTable
0
ENDTAB
0
TABLE
2
LTYPE
5
5
100
AcDbSymbolTable
0
LTYPE
5
14
100
AcDbSymbolTableRecord
100
AcDbLinetypeTableRecord
2
BYBLOCK
70
0
0
LTYPE
5
15
100
AcDbSymbolTableRecord
100
AcDbLinetypeTableRecord
2
BYLAYER
70
0
0
ENDTAB
0
TABLE
2
LAYER
5
2
100
AcDbSymbolTable
70
2
0
LAYER
5
50
100
AcDbSymbolTableRecord
100
AcDbLayerTableRecord
2
0
70
0
6
CONTINUOUS
0
ENDTAB
0
TABLE
2
STYLE
5
3
100
AcDbSymbolTable
70
1
0
STYLE
5
11
100
AcDbSymbolTableRecord
100
AcDbTextStyleTableRecord
2
STANDARD
70
0
0
ENDTAB
0
TABLE
2
VIEW
5
6
100
AcDbSymbolTable
70
0
0
ENDTAB
0
TABLE
2
UCS
5
7
100
AcDbSymbolTable
70
0
0
ENDTAB
0
TABLE
2
APPID
5
9
100
AcDbSymbolTable
70
2
0
APPID
5
12
100
AcDbSymbolTableRecord
100
AcDbRegAppTableRecord
2
ACAD
70
0
0
ENDTAB
0
TABLE
2
DIMSTYLE
5
A
100
AcDbSymbolTable
70
1
0
ENDTAB
0
TABLE
2
BLOCK_RECORD
5
1
100
AcDbSymbolTable
70
1
0
BLOCK_RECORD
5
1F
100
AcDbSymbolTableRecord
100
AcDbBlockTableRecord
2
*MODEL_SPACE
0
BLOCK_RECORD
5
1B
100
AcDbSymbolTableRecord
100
AcDbBlockTableRecord
2
*PAPER_SPACE
0
ENDTAB
0
ENDSEC
0
SECTION
2
BLOCKS
0
BLOCK
5
20
100
AcDbEntity
100
AcDbBlockBegin
2
*MODEL_SPACE
0
ENDBLK
5
21
100
AcDbEntity
100
AcDbBlockEnd
0
BLOCK
5
1C
100
AcDbEntity
100
AcDbBlockBegin
2
*PAPER_SPACE
0
ENDBLK
5
1D
100
AcDbEntity
100
AcDbBlockEnd
0
ENDSEC
0
SECTION
2
ENTITIES
0
LWPOLYLINE
5
100
100
AcDbEntity
8
0
100
AcDbPolyline
90
32
70
1
43
0.0
10
427.60000000001861
20
-36.999568444639323
10
426.50026538425902
20
-36.999568444639252
42
-0.41421356237303097
10
405.00026538425925
20
-15.499568444643728
10
405.00026538425857
20
-12.399999999987237
42
0.41421356237302903
10
403.0002653842584
20
-10.399999999987662
10
257.00054204742287
20
-10.399999999992868
42
0.41421356237309243
10
255.00054204742293
20
-12.399999999992936
10
255.00054204742338
20
-25.399999999993106
42
-0.41421356237308332
10
253.00054204742352
20
-27.399999999993163
10
137.00054204742347
20
-27.400000000001693
42
-0.41421356237311779
10
135.00054204742338
20
-25.400000000001764
10
135.00054204742298
20
-12.399999999997251
42
0.41421356237309859
10
133.00054204742293
20
-10.399999999997316
10
-12.999140030857159
20
-10.400000000002553
42
0.4142127567334144
10
-14.999140030849535
20
-12.399994498749196
10
-14.999148555031447
20
-15.498990813818736
42
-0.41421356237312645
10
-36.499207693425852
20
-36.998931675263826
10
-37.599879174716442
20
-36.998928647727375
42
0.41421436801327721
10
-39.599884675970017
20
-38.998928647719929
10
-39.599884675954499
20
-351.00107135230246
42
0.4142143680133078
10
-37.599879174700739
20
-353.0010713522949
10
-36.499207693412387
20
-353.00106832475831
42
-0.4142135623731284
10
-14.99914855501601
20
-374.50100918620166
10
-14.999140030833793
20
-377.60000550127097
42
0.41421275673342933
10
-12.999140030841254
20
-379.60000000001753
10
403.00026538433457
20
-379.59999999999673
42
0.41421356237311585
10
405.00026538433463
20
-377.59999999999627
10
405.00026538433394
20
-374.50043155534735
42
-0.41421356237312695
10
426.50026538433195
20
-353.00043155534291
10
427.6000000000451
20
-353.00043155534269
42
0.41421356237307422
10
429.60000000004493
20
-351.00043155534257
10
429.60000000001855
20
-38.999568444639159
42
0.41421356237307488
0
ENDSEC
0
SECTION
2
OBJECTS
0
DICTIONARY
5
C
100
AcDbDictionary
3
ACAD_GROUP
350
D
3
ACAD_MLINESTYLE
350
17
0
DICTIONARY
5
D
100
AcDbDictionary
0
DICTIONARY
5
1A
330
C
100
AcDbDictionary
0
DICTIONARY
5
17
100
AcDbDictionary
0
ENDSEC
0
EOF
